<?xml version="1.0" standalone="no"?>
<!DOCTYPE svg PUBLIC "-//W3C//DTD SVG 20010904//EN"
 "http://www.w3.org/TR/2001/REC-SVG-20010904/DTD/svg10.dtd">
<svg version="1.0" xmlns="http://www.w3.org/2000/svg"
 width="512.000000pt" height="512.000000pt" viewBox="0 0 512.000000 512.000000"
 preserveAspectRatio="xMidYMid meet">
<metadata>
Created by potrace 1.14, written by Peter Selinger 2001-2017
</metadata>
<g transform="translate(0.000000,512.000000) scale(0.100000,-0.100000)"
fill="#000000" stroke="none">
<path d="M2079 4786 c-2 -2 -35 -6 -74 -10 -182 -16 -377 -62 -565 -133 -93
-35 -260 -113 -310 -144 -14 -9 -56 -35 -95 -59 -379 -237 -707 -629 -871
-1043 -40 -100 -81 -222 -88 -259 -2 -13 -9 -43 -16 -66 -16 -60 -39 -193 -48
-277 -14 -133 -7 -460 12 -560 2 -11 7 -40 11 -65 14 -93 76 -319 104 -385 5
-11 15 -36 22 -55 10 -30 61 -135 125 -260 24 -48 127 -202 183 -275 166 -215
414 -432 651 -568 237 -136 562 -246 800 -273 25 -3 56 -8 70 -12 14 -3 724
-8 1578 -9 l1552 -4 0 183 0 183 -835 -2 c-459 -1 -835 0 -835 1 0 2 19 16 43
32 328 221 631 594 789 969 84 198 147 449 165 659 9 95 9 361 0 426 -14 109
-28 194 -38 238 -6 26 -13 58 -15 72 -6 34 -60 202 -86 270 -36 94 -113 252
-158 325 -23 39 -48 79 -54 90 -23 41 -131 182 -195 254 -331 373 -753 617
-1236 716 -44 9 -98 18 -120 21 -22 3 -53 7 -70 10 -34 6 -391 14 -396 10z
m314 -627 c92 -31 145 -64 219 -139 105 -107 156 -228 156 -375 0 -124 -32
-220 -106 -320 -108 -145 -253 -218 -432 -219 -173 0 -311 67 -430 209 -87
105 -130 277 -105 420 14 79 64 194 101 232 7 7 21 23 31 36 29 36 114 103
161 127 118 59 281 70 405 29z m-1121 -1074 c85 -22 122 -40 193 -93 170 -127
249 -329 211 -540 -31 -168 -178 -337 -346 -399 -66 -25 -89 -28 -190 -28
-100 1 -124 4 -183 28 -95 37 -164 88 -241 176 -28 33 -83 140 -90 177 -3 11
-9 37 -14 59 -5 23 -8 72 -7 110 8 285 241 518 524 524 47 1 106 -5 143 -14z
m2177 1 c42 -9 164 -73 196 -101 17 -14 39 -34 50 -44 53 -46 106 -135 136
-226 20 -64 29 -188 17 -245 -39 -180 -140 -315 -294 -393 -190 -96 -425 -69
-585 68 -138 118 -203 266 -194 445 10 232 174 431 405 495 53 14 208 15 269
1z m-1104 -1081 c111 -21 246 -111 322 -215 116 -159 134 -379 46 -554 -26
-51 -85 -131 -113 -152 -8 -7 -28 -23 -43 -36 -158 -138 -435 -150 -620 -27
-161 106 -249 272 -248 464 1 60 2 72 17 130 28 117 133 257 239 322 113 69
261 94 400 68z"/>
</g>
</svg>
